<?xml version="1.0" encoding="UTF-8"?>
<svg id="Capa_1" data-name="Capa 1" xmlns="http://www.w3.org/2000/svg" viewBox="0 0 2133.77 641.91">
  <defs>
    <style>
      .cls-1 {
        fill: #fff;
        stroke-width: 0px;
      }
    </style>
  </defs>
  <path class="cls-1" d="M199.15,463.15c21.87,20.96,34.41,40.05,34.41,69.75v3.27c0,12.14,9.79,21.98,21.86,21.98h145.48c12.07,0,21.85-9.84,21.85-21.98v-3.27c0-29.97,12.41-48.5,34.95-70.28,37.04-35.79,57.44-83.94,57.44-135.58s-19.78-98.28-55.7-133.9c-35.27-34.98-81.79-54.14-131.26-54.14-.9,0-1.8,0-2.7.02-48.16.68-93.75,19.95-128.39,54.27-34.65,34.33-54.48,79.89-55.85,128.3-1.5,53.25,19.6,104.84,57.91,141.56ZM184.93,322.84c2.15-76.06,65.47-138.8,141.16-139.87,38.71-.47,75.14,14.19,102.65,41.47,27.52,27.3,42.68,63.73,42.68,102.6s-15.63,76.46-44.02,103.88c-26.1,25.22-42.75,48.46-47.19,83.27h-104.13c-4.38-34.94-20.9-58.05-46.79-82.87-29.35-28.14-45.52-67.68-44.37-108.49Z"/>
  <path class="cls-1" d="M406.74,562.83c0-12.14-9.79-21.98-21.85-21.98h-113.48c-12.07,0-21.85,9.84-21.85,21.98s9.78,21.98,21.85,21.98h113.48c12.07,0,21.85-9.84,21.85-21.98Z"/>
  <path class="cls-1" d="M328.18,641.91c24.3,0,45.76-14.39,58.28-36.2h-116.63c12.52,21.81,33.99,36.2,58.35,36.2Z"/>
  <path class="cls-1" d="M339.03,253.09c35.55,0,64.48,28.92,64.48,64.47,0,8.65,7.01,15.66,15.66,15.66s15.66-7.01,15.66-15.66c0-52.82-42.97-95.8-95.8-95.8-8.65,0-15.66,7.01-15.66,15.66s7.01,15.66,15.66,15.66Z"/>
  <path class="cls-1" d="M328.15,107.72c11.53,0,20.88-9.35,20.88-20.88V20.88c0-11.53-9.35-20.88-20.88-20.88s-20.88,9.35-20.88,20.88v65.95c0,11.53,9.35,20.88,20.88,20.88Z"/>
  <path class="cls-1" d="M498.79,178.4c5.34,0,10.69-2.04,14.77-6.12l46.64-46.64c8.15-8.15,8.15-21.38,0-29.53-8.16-8.15-21.37-8.15-29.53,0l-46.64,46.64c-8.15,8.15-8.15,21.38,0,29.53,4.08,4.08,9.42,6.12,14.77,6.12Z"/>
  <path class="cls-1" d="M548.59,328.15c0,11.53,9.35,20.88,20.88,20.88h65.95c11.53,0,20.88-9.35,20.88-20.88s-9.35-20.88-20.88-20.88h-65.95c-11.53,0-20.88,9.35-20.88,20.88Z"/>
  <path class="cls-1" d="M142.75,172.28c4.08,4.08,9.42,6.12,14.77,6.12s10.69-2.04,14.77-6.12c8.15-8.15,8.15-21.38,0-29.53l-46.64-46.64c-8.16-8.15-21.37-8.15-29.53,0-8.15,8.15-8.15,21.38,0,29.53l46.64,46.64Z"/>
  <path class="cls-1" d="M86.83,307.27H20.88c-11.53,0-20.88,9.35-20.88,20.88s9.35,20.88,20.88,20.88h65.95c11.53,0,20.88-9.35,20.88-20.88s-9.35-20.88-20.88-20.88Z"/>
  <path class="cls-1" d="M498.79,477.68c5.34,0,10.69,2.04,14.77,6.12l46.64,46.64c8.15,8.15,8.15,21.38,0,29.53-8.16,8.15-21.37,8.15-29.53,0l-46.64-46.64c-8.15-8.15-8.15-21.38,0-29.53,4.08-4.08,9.42-6.12,14.77-6.12Z"/>
  <path class="cls-1" d="M142.75,483.79c4.08-4.08,9.42-6.12,14.77-6.12s10.69,2.04,14.77,6.12c8.15,8.15,8.15,21.38,0,29.53l-46.64,46.64c-8.16,8.15-21.37,8.15-29.53,0-8.15-8.15-8.15-21.38,0-29.53l46.64-46.64Z"/>
  <g>
    <path class="cls-1" d="M1008.21,199.66c4.27,13.09,7.74,31.04,10.41,53.87,2.67,22.83,4.01,47.4,4.01,73.7s-3.14,52.41-9.41,78.3c-6.28,25.9-15.56,46.46-27.84,61.68-16.56,20.83-37.39,31.24-62.48,31.24-3.47,0-6.81-.27-10.01-.8-32.31-3.47-56.08-17.36-71.3-41.66-5.08-8.01-9.01-16.88-11.82-26.63-2.8-9.75-4.27-19.36-4.41-28.84-.14-9.48.06-18.42.6-26.84.53-8.41,1.73-16.55,3.6-24.43,1.86-7.87,3.27-13.68,4.21-17.42.93-3.74,1.93-6.94,3-9.61,2.67-7.47,7.61-13.02,14.82-16.62,7.21-3.61,14.68-4.07,22.43-1.4,7.74,2.67,13.42,7.61,17.02,14.82s4.07,14.69,1.4,22.43c-2.14,6.41-4.07,14.09-5.81,23.03-1.74,8.95-2.47,19.5-2.2,31.64.26,12.15,2.53,21.7,6.81,28.64,5.34,8.01,14.68,12.82,28.04,14.42,8.01.8,14.82-2.13,20.43-8.81,14.95-18.69,22.96-53.93,24.03-105.74.26-21.36-.74-41.99-3-61.88-2.27-19.89-5.01-34.65-8.21-44.26-2.67-7.74-2.2-15.22,1.4-22.43s9.21-12.15,16.82-14.82c7.61-2.67,15.08-2.2,22.43,1.4,7.34,3.6,12.35,9.28,15.02,17.02Z"/>
    <path class="cls-1" d="M1205.67,461.61c3.47,3.47,5.47,7.67,6.01,12.62.53,4.94-.54,9.68-3.2,14.22-4.27,7.47-10.81,11.21-19.63,11.21-4.01,0-7.88-1.07-11.62-3.21-6.95-4-12.02-11.21-15.22-21.63-12.55,13.08-27.51,19.76-44.86,20.03h-1.6c-16.29,0-30.18-5.88-41.66-17.62-7.75-8.28-13.96-18.89-18.62-31.84-4.67-12.95-7.68-27.9-9.01-44.86-1.34-16.95-1.94-33.18-1.8-48.67.13-15.48.86-33.11,2.2-52.87.26-3.47.4-5.74.4-6.81.53-6.41,3.14-11.68,7.81-15.82,4.67-4.14,10.21-6.01,16.62-5.61,6.41.4,11.68,3,15.82,7.81,4.14,4.81,5.94,10.28,5.41,16.42,0,1.6-.14,4-.4,7.21-2.4,33.38-3.07,60.08-2,80.11,1.87,32.58,7.34,53.67,16.42,63.29,2.67,2.67,5.74,3.87,9.21,3.6,9.07-.26,17.42-8.41,25.03-24.43s13.02-39.52,16.22-70.49c.26-2.94.4-5.14.4-6.61s.26-3,.8-4.61c1.86-22.96,2.53-48.6,2-76.9,0-4.27,1-8.14,3-11.62,2-3.47,4.74-6.27,8.21-8.41,3.47-2.13,7.21-3.2,11.21-3.2h.4c6.41,0,11.82,2.14,16.22,6.41,4.41,4.27,6.74,9.61,7.01,16.02.53,33.91-.67,64.49-3.6,91.72-.54,15.76-.94,30.71-1.2,44.86,0,30.18,1.33,50.07,4.01,59.68Z"/>
    <path class="cls-1" d="M1390.72,280.57c4.54,29.91,4.01,65.02-1.6,105.34-7.21,51.54-21.5,86.78-42.86,105.74-11.75,10.41-24.97,15.62-39.65,15.62-6.15,0-12.29-.94-18.42-2.8-6.15-1.6-10.75-5.21-13.82-10.81-3.07-5.61-3.74-11.42-2-17.42,1.73-6.01,5.34-10.55,10.81-13.62,5.47-3.07,11.28-3.81,17.42-2.2,5.87,1.6,10.95.53,15.22-3.2,6.41-5.61,12.15-15.75,17.22-30.44-14.42,8.28-28.98,12.42-43.66,12.42-.54,0-1.07-.13-1.6-.4-7.75,0-15.09-1.33-22.03-4-6.95-2.67-13.02-6.34-18.22-11.02-5.21-4.67-9.68-10.34-13.42-17.02-3.74-6.67-6.41-14.02-8.01-22.03-2.4-13.88-2.07-27.7,1-41.46,3.07-13.75,8.67-26.37,16.82-37.85,8.14-11.48,18.36-20.96,30.64-28.44,12.02-7.47,24.63-11.82,37.85-13.02,13.22-1.2,25.83.74,37.85,5.81,3.74-4.81,8.54-7.61,14.42-8.41,6.14-1.06,11.75.27,16.82,4.01,5.07,3.74,8.14,8.81,9.21,15.22ZM1347.46,333.04c.26-4.27.26-8.54,0-12.82-2.67-.8-5.08-2-7.21-3.6-12.55-9.88-26.44-10.15-41.66-.8-9.35,5.61-16.82,13.96-22.43,25.03-5.61,11.08-7.21,22.77-4.81,35.05,2.13,11.48,8.01,17.22,17.62,17.22h.4c10.15,0,20.96-4.81,32.44-14.42,11.48-9.61,19.23-22.96,23.23-40.05.53-1.87,1.33-3.74,2.4-5.61Z"/>
    <path class="cls-1" d="M1587.38,313.41c9.34,43.53,5.87,102.14-10.41,175.84-1.07,5.34-3.67,9.67-7.81,13.02-4.14,3.33-8.88,5.01-14.22,5.01-1.6,0-3.34-.14-5.21-.4-6.15-1.34-10.88-4.67-14.22-10.01-3.34-5.34-4.34-11.08-3-17.22,1.6-7.75,3.2-15.49,4.81-23.23-18.69,13.62-38.45,21.36-59.28,23.23-2.67.26-5.21.4-7.61.4-15.76,0-29.11-4.21-40.05-12.62-10.95-8.41-17.76-19.96-20.43-34.65-3.74-18.16-1.2-36.31,7.61-54.47,8.81-18.16,22.16-32.98,40.05-44.46,27.24-17.08,55.41-21.36,84.51-12.82-5.08-23.23-13.62-36.58-25.63-40.05-4.81-1.6-9.95-1.33-15.42.8-5.48,2.14-10.55,5.61-15.22,10.41-4.67,4.81-8.21,10.28-10.61,16.42-2.4,5.88-6.48,10.08-12.22,12.62-5.75,2.54-11.55,2.67-17.42.4-5.88-2.26-10.08-6.27-12.62-12.02-2.54-5.74-2.74-11.55-.6-17.42,8.01-20.03,20.83-35.51,38.45-46.46,19.49-11.75,39.11-14.55,58.88-8.41,5.07,1.34,9.94,3.47,14.62,6.41,4.67,2.94,9.94,7.15,15.82,12.62,5.87,5.48,11.22,13.16,16.02,23.03,4.81,9.88,8.54,21.23,11.22,34.04ZM1474.03,433.97c14.68-1.33,29.04-8.07,43.06-20.23,14.02-12.15,21.83-26.77,23.43-43.86-8.01-4.54-16.56-6.81-25.63-6.81-11.48,0-22.43,3.2-32.84,9.61-9.88,6.41-17.36,14.29-22.43,23.63-5.08,9.35-6.68,18.69-4.81,28.04.26,1.87.73,3.4,1.4,4.61.66,1.2,2.47,2.47,5.41,3.81,2.94,1.34,7.07,1.74,12.42,1.2Z"/>
    <path class="cls-1" d="M1764.41,388.31c.26,37.12-.4,72.76-2,106.94-.27,6.14-2.6,11.28-7.01,15.42-4.41,4.14-9.68,6.21-15.82,6.21h-1.2c-6.15-.27-11.35-2.67-15.62-7.21-4.27-4.54-6.28-10.01-6.01-16.42.26-12.02.13-25.5-.4-40.45-8.28,13.35-17.76,22.83-28.44,28.44-13.89,7.74-28.44,8.67-43.66,2.8-15.76-5.88-26.77-15.89-33.04-30.04-6.28-14.15-7.15-30.44-2.6-48.87,6.14-23.49,18.62-44.39,37.45-62.68,18.83-18.29,37.98-26.1,57.48-23.43,4.27.54,8.41,1.74,12.42,3.6-1.6-21.63-3.74-35.38-6.41-41.26-4.01-4.54-5.88-9.81-5.61-15.82.26-6.01,2.53-11.15,6.81-15.42s9.61-6.41,16.02-6.41,11.75,2.14,16.02,6.41c4.27,4.27,7.67,9.61,10.21,16.02,2.53,6.41,5.01,19.9,7.41,40.45,2.4,20.56,3.74,47.8,4.01,81.71ZM1696.72,377.9c.8-3.2,2.13-6.14,4.01-8.81-1.34-2.13-2.54-3.74-3.6-4.81h-.4c-5.61,0-12.69,4.54-21.23,13.62-11.48,11.48-18.96,24.3-22.43,38.45-.8,5.34-1.34,9.48-1.6,12.42-.27,2.94.33,5.34,1.8,7.21,1.46,1.87,2.67,3.14,3.6,3.8.93.67,2.07,1.27,3.4,1.8,2.13.8,4.01.67,5.61-.4,6.14-3.2,12.15-11.42,18.02-24.63,5.87-13.22,10.15-26.1,12.82-38.65Z"/>
    <path class="cls-1" d="M1927.83,315.41c12.82,23.5,18.42,51.14,16.82,82.91-1.6,28.04-8.55,51.81-20.83,71.3-14.96,24.03-34.58,36.05-58.88,36.05h-3.6c-13.35-.8-25.5-4.94-36.45-12.42-10.95-7.48-19.76-17.89-26.44-31.24-11.22-22.16-16.09-48.8-14.62-79.91,1.46-31.1,9.01-56.94,22.63-77.5,8.27-12.82,18.29-21.89,30.04-27.24,4.81-6.14,11.08-8.94,18.83-8.41,15.48.8,29.44,5.21,41.86,13.22s22.63,19.09,30.64,33.24ZM1899.39,395.92c.26-6.67,0-13.68-.8-21.03-.8-7.34-2.27-14.88-4.41-22.63-2.14-7.74-5.54-14.82-10.21-21.23-4.67-6.41-10.35-11.08-17.02-14.02-2.67,1.07-5.48,1.47-8.41,1.2h-.4c-4.54,0-9.21,3.74-14.02,11.21-8.81,13.89-13.82,32.31-15.02,55.27-1.2,22.97,2.07,41.92,9.81,56.88,2.4,4.81,5.27,8.75,8.61,11.82,3.34,3.07,6.21,4.94,8.61,5.61,2.4.66,4.94,1.13,7.61,1.4,9.61.53,17.76-5.81,24.43-19.03,6.67-13.22,10.41-28.37,11.22-45.46Z"/>
    <path class="cls-1" d="M2128.9,323.82c4.01,5.08,5.54,10.75,4.61,17.02-.94,6.28-3.87,11.35-8.81,15.22-4.94,3.87-10.55,5.34-16.82,4.41-6.28-.93-11.28-3.94-15.02-9.01-14.96-19.23-28.71-28.44-41.26-27.64-7.75.27-15.22,3.81-22.43,10.61-7.21,6.81-12.42,12.89-15.62,18.22-1.07,1.6-2.27,3.2-3.6,4.81-.54,7.75-.8,15.76-.8,24.03-.27,41.66,1.6,71.16,5.61,88.52,4.01,6.14,4.81,12.82,2.4,20.03-1.87,4.54-4.74,8.21-8.61,11.01-3.87,2.8-8.21,4.21-13.02,4.21-2.67,0-5.21-.54-7.61-1.6-8.81-3.2-14.69-10.95-17.62-23.23-2.4-9.88-4.21-25.23-5.41-46.06-1.2-20.83-1.67-41.79-1.4-62.88,1.33-59.01,9.07-95.99,23.23-110.95,4.27-4.54,9.61-6.81,16.02-6.81s11.88,2.14,16.42,6.41c6.67,6.68,8.54,14.56,5.61,23.63,8.01-3.47,16.02-5.34,24.03-5.61,28.84-1.86,55.54,13.36,80.11,45.66Z"/>
  </g>
</svg>