<?xml version="1.0" encoding="UTF-8"?>
<svg id="Capa_1" data-name="Capa 1" xmlns="http://www.w3.org/2000/svg" viewBox="0 0 2114.33 615.68">
  <defs>
    <style>
      .cls-1 {
        stroke-width: 11px;
      }

      .cls-1, .cls-2, .cls-3, .cls-4, .cls-5 {
        fill: #fff;
      }

      .cls-1, .cls-2, .cls-4, .cls-5 {
        stroke: #fff;
        stroke-miterlimit: 10;
      }

      .cls-2 {
        stroke-width: 24px;
      }

      .cls-3 {
        stroke-width: 0px;
      }

      .cls-4 {
        stroke-width: 7px;
      }

      .cls-5 {
        stroke-width: 6px;
      }
    </style>
  </defs>
  <path class="cls-2" d="M320.62,398.9l45.81-76.26c1.76-2.93,4.85-4.81,8.27-5.02l88.79-5.5c8.6-.53,12.85-10.69,7.2-17.19l-58.37-67.13c-2.24-2.58-3.08-6.1-2.22-9.42l22.21-86.14c2.15-8.34-6.2-15.53-14.13-12.16l-81.88,34.77c-3.15,1.34-6.75,1.04-9.64-.8l-75.07-47.74c-7.27-4.62-16.68,1.1-15.93,9.68l7.77,88.62c.3,3.41-1.1,6.74-3.74,8.92l-68.6,56.64c-6.64,5.48-4.11,16.21,4.28,18.14l86.68,20c3.33.77,6.08,3.13,7.33,6.31l32.67,82.75c3.16,8.01,14.14,8.92,18.58,1.54Z"/>
  <path class="cls-1" d="M218.94,365.71c-8.97-7.73-22.51-6.71-30.24,2.26L10.69,574.75c-7.73,8.97-6.71,22.51,2.26,30.24s22.51,6.71,30.24-2.26l178.01-206.78c7.73-8.97,6.71-22.51-2.26-30.24Z"/>
  <path class="cls-5" d="M422.12,399.89l-18.57-1.77c-1.8-.17-3.01,1.79-2.06,3.32l9.89,15.82c.38.61.44,1.36.15,2.02l-7.43,17.11c-.72,1.66.77,3.42,2.53,2.98l18.1-4.52c.7-.17,1.43,0,1.97.48l13.98,12.35c1.35,1.2,3.49.32,3.62-1.48l1.3-18.61c.05-.72.45-1.36,1.07-1.73l16.07-9.48c1.56-.92,1.38-3.22-.29-3.9l-17.3-6.99c-.67-.27-1.16-.85-1.31-1.55l-4.05-18.21c-.39-1.76-2.64-2.31-3.8-.93l-11.99,14.29c-.46.55-1.16.84-1.88.77Z"/>
  <path class="cls-5" d="M328.92,19.98l-19.9-1.9c-1.93-.18-3.23,1.92-2.2,3.56l10.6,16.95c.41.65.47,1.46.16,2.17l-7.96,18.34c-.77,1.78.83,3.66,2.71,3.2l19.4-4.84c.75-.19,1.54,0,2.11.52l14.98,13.24c1.45,1.28,3.74.34,3.88-1.59l1.39-19.94c.05-.77.48-1.46,1.14-1.85l17.22-10.16c1.67-.98,1.48-3.45-.31-4.18l-18.54-7.49c-.71-.29-1.24-.91-1.41-1.66l-4.34-19.51c-.42-1.89-2.83-2.48-4.07-.99l-12.85,15.32c-.49.59-1.25.9-2.01.82Z"/>
  <path class="cls-4" d="M126.98,205.64l2.38-34.11c.09-1.31.82-2.49,1.96-3.16l29.45-17.37c2.85-1.68,2.54-5.9-.53-7.14l-31.7-12.8c-1.22-.49-2.12-1.55-2.4-2.84l-7.43-33.37c-.72-3.23-4.83-4.24-6.96-1.7l-21.97,26.19c-.84,1.01-2.13,1.53-3.44,1.41l-34.03-3.25c-3.3-.31-5.52,3.29-3.77,6.09l18.12,28.99c.7,1.12.8,2.5.28,3.71l-13.61,31.36c-1.32,3.04,1.42,6.27,4.63,5.47l33.17-8.28c1.28-.32,2.63.01,3.61.88l25.62,22.64c2.48,2.19,6.4.59,6.63-2.72Z"/>
  <path class="cls-4" d="M581.66,255.74l2.38-34.11c.09-1.31.82-2.49,1.96-3.16l29.45-17.37c2.85-1.68,2.54-5.9-.53-7.14l-31.7-12.8c-1.22-.49-2.12-1.55-2.4-2.84l-7.43-33.37c-.72-3.23-4.83-4.24-6.96-1.7l-21.97,26.19c-.84,1.01-2.13,1.53-3.44,1.41l-34.03-3.25c-3.3-.31-5.52,3.29-3.77,6.09l18.12,28.99c.7,1.12.8,2.5.28,3.71l-13.61,31.36c-1.32,3.04,1.42,6.27,4.63,5.47l33.17-8.28c1.28-.32,2.63.01,3.61.88l25.62,22.64c2.48,2.19,6.4.59,6.63-2.72Z"/>
  <g>
    <path class="cls-3" d="M1004.4,224.01c5.07,6.41,7.21,13.62,6.41,21.63-.8,8.01-4.34,14.62-10.61,19.83-6.28,5.21-13.49,7.41-21.63,6.61-8.15-.8-14.76-4.41-19.83-10.81-4.81-5.61-10.68-9.67-17.62-12.22-6.95-2.54-13.62-3.67-20.03-3.41-6.41.27-12.82,1.6-19.23,4.01-16.02,5.61-29.78,16.89-41.26,33.85-11.48,16.96-17.22,38.79-17.22,65.49,0,11.75,1.46,22.37,4.41,31.84,2.94,9.48,6.61,17.16,11.01,23.03,4.41,5.88,9.48,10.81,15.22,14.82,5.74,4,11.15,6.81,16.22,8.41,5.07,1.6,9.88,2.54,14.42,2.8,2.13,0,4.27-.13,6.41-.4,2.13-.26,4.74-.8,7.81-1.6,3.07-.8,5.61-2.33,7.61-4.61,2-2.27,3.27-5.14,3.81-8.61.53-8.01,3.94-14.62,10.21-19.83,6.27-5.21,13.48-7.41,21.63-6.61,8.14.8,14.82,4.34,20.03,10.61,5.21,6.28,7.41,13.42,6.61,21.43-1.87,20.3-10.35,36.79-25.43,49.47-15.09,12.68-33.85,19.03-56.28,19.03-1.6,0-3.2-.14-4.81-.4-14.96-.54-29.38-4.07-43.26-10.61-13.89-6.55-26.44-15.49-37.65-26.84s-20.16-25.9-26.84-43.66c-6.68-17.76-10.01-37.18-10.01-58.28,0-38.71,9.61-72.23,28.84-100.54,17.62-26.17,40.59-44.32,68.89-54.47,22.69-8.01,45.12-9.34,67.29-4,22.16,5.34,40.45,16.69,54.87,34.04Z"/>
    <path class="cls-3" d="M1178.63,328.55c4.01,5.08,5.54,10.75,4.61,17.02-.94,6.28-3.87,11.35-8.81,15.22-4.94,3.87-10.55,5.34-16.82,4.41-6.28-.93-11.28-3.94-15.02-9.01-14.96-19.23-28.71-28.44-41.26-27.64-7.75.27-15.22,3.81-22.43,10.61-7.21,6.81-12.42,12.89-15.62,18.22-1.07,1.6-2.27,3.2-3.6,4.81-.54,7.75-.8,15.76-.8,24.03-.27,41.66,1.6,71.16,5.61,88.52,4.01,6.14,4.81,12.82,2.4,20.03-1.87,4.54-4.74,8.21-8.61,11.01-3.87,2.8-8.21,4.21-13.02,4.21-2.67,0-5.21-.54-7.61-1.6-8.81-3.2-14.69-10.95-17.62-23.23-2.4-9.88-4.21-25.23-5.41-46.06-1.2-20.83-1.67-41.79-1.4-62.88,1.33-59.01,9.07-95.99,23.23-110.95,4.27-4.54,9.61-6.81,16.02-6.81s11.88,2.14,16.42,6.41c6.67,6.68,8.54,14.56,5.61,23.63,8.01-3.47,16.02-5.34,24.03-5.61,28.84-1.86,55.54,13.36,80.11,45.66Z"/>
    <path class="cls-3" d="M1364.07,320.54c7.47,14.42,12.15,29.91,14.02,46.46,1.86,16.56-.4,29.91-6.81,40.05-5.08,6.68-14.36,11.35-27.84,14.02-13.49,2.67-37.05,3.34-70.69,2-6.41-.26-13.35-.53-20.83-.8,2.94,8.28,6.67,14.82,11.21,19.63,8.54,8.55,21.09,9.61,37.65,3.21,5.87-2.4,11.68-2.33,17.42.2,5.74,2.54,9.81,6.75,12.22,12.62,1.33,4.01,1.73,7.94,1.2,11.82-.54,3.87-2.07,7.41-4.61,10.61-2.54,3.2-5.68,5.61-9.41,7.21-12.82,5.07-24.97,7.61-36.45,7.61-19.5,0-36.32-6.95-50.47-20.83-13.36-13.62-22.3-32.17-26.84-55.67h-2.8c-6.41-.53-11.62-3.27-15.62-8.21-4.01-4.94-5.75-10.48-5.21-16.62.53-5.61,2.87-10.41,7.01-14.42,4.14-4,8.87-6.14,14.22-6.41,1.6-16.55,5.07-31.77,10.41-45.66,3.74-8.81,8.07-16.75,13.02-23.83,4.94-7.07,10.41-13.08,16.42-18.02,6.01-4.94,12.55-8.81,19.63-11.62,7.07-2.8,14.48-4.21,22.23-4.21,17.09-.53,32.64,3.54,46.66,12.22,14.02,8.68,25.43,21.57,34.25,38.65ZM1266.74,377.01c30.97,1.34,53.13,1.07,66.49-.8-.54-6.67-2.14-14.28-4.81-22.83-2.67-8.54-6.68-16.15-12.02-22.83-8.55-10.68-19.23-15.75-32.04-15.22-12.29.27-22.3,9.88-30.04,28.84-3.74,9.61-6.15,20.3-7.21,32.04,7.21.27,13.75.54,19.63.8Z"/>
    <path class="cls-3" d="M1567.94,318.13c9.34,43.53,5.87,102.14-10.41,175.84-1.07,5.34-3.67,9.67-7.81,13.02-4.14,3.33-8.88,5.01-14.22,5.01-1.6,0-3.34-.14-5.21-.4-6.15-1.34-10.88-4.67-14.22-10.01-3.34-5.34-4.34-11.08-3-17.22,1.6-7.75,3.2-15.49,4.81-23.23-18.69,13.62-38.45,21.36-59.28,23.23-2.67.26-5.21.4-7.61.4-15.76,0-29.11-4.21-40.05-12.62-10.95-8.41-17.76-19.96-20.43-34.65-3.74-18.16-1.2-36.31,7.61-54.47,8.81-18.16,22.16-32.98,40.05-44.46,27.24-17.08,55.41-21.36,84.51-12.82-5.08-23.23-13.62-36.58-25.63-40.05-4.81-1.6-9.95-1.33-15.42.8-5.48,2.14-10.55,5.61-15.22,10.41-4.67,4.81-8.21,10.28-10.61,16.42-2.4,5.88-6.48,10.08-12.22,12.62-5.75,2.54-11.55,2.67-17.42.4-5.88-2.26-10.08-6.27-12.62-12.02-2.54-5.74-2.74-11.55-.6-17.42,8.01-20.03,20.83-35.51,38.45-46.46,19.49-11.75,39.11-14.55,58.88-8.41,5.07,1.34,9.94,3.47,14.62,6.41,4.67,2.94,9.94,7.15,15.82,12.62,5.87,5.48,11.22,13.16,16.02,23.03,4.81,9.88,8.54,21.23,11.22,34.04ZM1454.59,438.7c14.68-1.33,29.04-8.07,43.06-20.23,14.02-12.15,21.83-26.77,23.43-43.86-8.01-4.54-16.56-6.81-25.63-6.81-11.48,0-22.43,3.2-32.84,9.61-9.88,6.41-17.36,14.29-22.43,23.63-5.08,9.35-6.68,18.69-4.81,28.04.26,1.87.73,3.4,1.4,4.61.66,1.2,2.47,2.47,5.41,3.81,2.94,1.34,7.07,1.74,12.42,1.2Z"/>
    <path class="cls-3" d="M1744.98,393.03c.26,37.12-.4,72.76-2,106.94-.27,6.14-2.6,11.28-7.01,15.42-4.41,4.14-9.68,6.21-15.82,6.21h-1.2c-6.15-.27-11.35-2.67-15.62-7.21-4.27-4.54-6.28-10.01-6.01-16.42.26-12.02.13-25.5-.4-40.45-8.28,13.35-17.76,22.83-28.44,28.44-13.89,7.74-28.44,8.67-43.66,2.8-15.76-5.88-26.77-15.89-33.04-30.04-6.28-14.15-7.15-30.44-2.6-48.87,6.14-23.49,18.62-44.39,37.45-62.68,18.83-18.29,37.98-26.1,57.48-23.43,4.27.54,8.41,1.74,12.42,3.6-1.6-21.63-3.74-35.38-6.41-41.26-4.01-4.54-5.88-9.81-5.61-15.82.26-6.01,2.53-11.15,6.81-15.42s9.61-6.41,16.02-6.41,11.75,2.14,16.02,6.41c4.27,4.27,7.67,9.61,10.21,16.02,2.53,6.41,5.01,19.9,7.41,40.45,2.4,20.56,3.74,47.8,4.01,81.71ZM1677.29,382.62c.8-3.2,2.13-6.14,4.01-8.81-1.34-2.13-2.54-3.74-3.6-4.81h-.4c-5.61,0-12.69,4.54-21.23,13.62-11.48,11.48-18.96,24.3-22.43,38.45-.8,5.34-1.34,9.48-1.6,12.42-.27,2.94.33,5.34,1.8,7.21,1.46,1.87,2.67,3.14,3.6,3.8.93.67,2.07,1.27,3.4,1.8,2.13.8,4.01.67,5.61-.4,6.14-3.2,12.15-11.42,18.02-24.63,5.87-13.22,10.15-26.1,12.82-38.65Z"/>
    <path class="cls-3" d="M1908.39,320.14c12.82,23.5,18.42,51.14,16.82,82.91-1.6,28.04-8.55,51.81-20.83,71.3-14.96,24.03-34.58,36.05-58.88,36.05h-3.6c-13.35-.8-25.5-4.94-36.45-12.42-10.95-7.48-19.76-17.89-26.44-31.24-11.22-22.16-16.09-48.8-14.62-79.91,1.46-31.1,9.01-56.94,22.63-77.5,8.27-12.82,18.29-21.89,30.04-27.24,4.81-6.14,11.08-8.94,18.83-8.41,15.48.8,29.44,5.21,41.86,13.22s22.63,19.09,30.64,33.24ZM1879.96,400.64c.26-6.67,0-13.68-.8-21.03-.8-7.34-2.27-14.88-4.41-22.63-2.14-7.74-5.54-14.82-10.21-21.23-4.67-6.41-10.35-11.08-17.02-14.02-2.67,1.07-5.48,1.47-8.41,1.2h-.4c-4.54,0-9.21,3.74-14.02,11.21-8.81,13.89-13.82,32.31-15.02,55.27-1.2,22.97,2.07,41.92,9.81,56.88,2.4,4.81,5.27,8.75,8.61,11.82,3.34,3.07,6.21,4.94,8.61,5.61,2.4.66,4.94,1.13,7.61,1.4,9.61.53,17.76-5.81,24.43-19.03,6.67-13.22,10.41-28.37,11.22-45.46Z"/>
    <path class="cls-3" d="M2109.46,328.55c4.01,5.08,5.54,10.75,4.61,17.02-.94,6.28-3.87,11.35-8.81,15.22-4.94,3.87-10.55,5.34-16.82,4.41-6.28-.93-11.28-3.94-15.02-9.01-14.96-19.23-28.71-28.44-41.26-27.64-7.75.27-15.22,3.81-22.43,10.61-7.21,6.81-12.42,12.89-15.62,18.22-1.07,1.6-2.27,3.2-3.6,4.81-.54,7.75-.8,15.76-.8,24.03-.27,41.66,1.6,71.16,5.61,88.52,4.01,6.14,4.81,12.82,2.4,20.03-1.87,4.54-4.74,8.21-8.61,11.01-3.87,2.8-8.21,4.21-13.02,4.21-2.67,0-5.21-.54-7.61-1.6-8.81-3.2-14.69-10.95-17.62-23.23-2.4-9.88-4.21-25.23-5.41-46.06-1.2-20.83-1.67-41.79-1.4-62.88,1.33-59.01,9.07-95.99,23.23-110.95,4.27-4.54,9.61-6.81,16.02-6.81s11.88,2.14,16.42,6.41c6.67,6.68,8.54,14.56,5.61,23.63,8.01-3.47,16.02-5.34,24.03-5.61,28.84-1.86,55.54,13.36,80.11,45.66Z"/>
  </g>
</svg>